# xmcd
#
# Track frame offsets:
#	150
#	16583
#	37399
#	55914
#	78055
#	97220
#	113274
#	140186
#	166221
#	198260
#	213184
#	244349
#	261049
#	290375
#	310333
#
# Disc length: 4424 seconds
#
# Revision: 0
# Processed by: cddbd v1.4b41PL1 Copyright (c) Steve Scherf et al.
# Submitted via: audiograbber 1.80
#
DISCID=ce11460f
DTITLE=Mean Town Blues Band - 2nd Gig, 2001.04.28 Rendez Vous 1
DYEAR=1900
DGENRE=
TTITLE0=Start It Up
TTITLE1=One Foot On The Path
TTITLE2=Cold Shot
TTITLE3=I Can't Understand
TTITLE4=Heartstruck
TTITLE5=The Stumble
TTITLE6=Damn Your Eyes
TTITLE7=Black Cat Bone
TTITLE8=Mean Town Blues
TTITLE9=Hideaway
TTITLE10=Red House
TTITLE11=Too Much Stuff
TTITLE12=Strip Me Naked
TTITLE13=Prison Of Love
TTITLE14=Tightrope
EXTD=
EXTT0=
EXTT1=
EXTT2=
EXTT3=
EXTT4=
EXTT5=
EXTT6=
EXTT7=
EXTT8=
EXTT9=
EXTT10=
EXTT11=
EXTT12=
EXTT13=
EXTT14=
PLAYORDER=
